<svg xmlns="http://www.w3.org/2000/svg" width="800" height="600"><rect width="800" height="600" x="0" y="0" fill="#FFFFFF" id="backgorund"/><g transform="translate(10,10)" id="viz"><g id="arcs"><path d="M14.229598395821384,290A28.620424091749022,28.620424091749022 0,0,1 71.47044657931943,290" fill="none" stroke="gray" stroke-width="6.3559322033898304" opacity="0.5"/><path d="M14.229598395821384,290A59.083628826410624,59.083628826410624 0,0,1 132.39685604864263,290" fill="none" stroke="gray" stroke-width="3.305084745762712" opacity="0.5"/><path d="M14.229598395821384,290A97.33419136334965,97.33419136334965 0,0,1 208.89798112252066,290" fill="none" stroke="gray" stroke-width="2.7966101694915255" opacity="0.5"/><path d="M14.229598395821384,290A134.9121427780509,134.9121427780509 0,0,1 284.0538839519232,290" fill="none" stroke="gray" stroke-width="3.305084745762712" opacity="0.5"/><path d="M336.3610375629694,290A132.445295491825,132.445295491825 0,0,1 71.47044657931943,290" fill="none" stroke="gray" stroke-width="0.7627118644067797" opacity="0.5"/><path d="M336.3610375629694,290A63.73152822022436,63.73152822022436 0,0,1 208.89798112252066,290" fill="none" stroke="gray" stroke-width="2.0338983050847457" opacity="0.5"/><path d="M383.9213035530833,290A156.22542848688192,156.22542848688192 0,0,1 71.47044657931943,290" fill="none" stroke="gray" stroke-width="1.5254237288135595" opacity="0.5"/><path d="M383.9213035530833,290A23.78013299505696,23.78013299505696 0,0,1 431.4815695431972,290" fill="none" stroke="gray" stroke-width="0.7627118644067797" opacity="0.5"/><path d="M383.9213035530833,290A87.51166121528132,87.51166121528132 0,0,1 208.89798112252066,290" fill="none" stroke="gray" stroke-width="7.88135593220339" opacity="0.5"/><path d="M490.1720670830065,290A209.35081025184354,209.35081025184354 0,0,1 71.47044657931943,290" fill="none" stroke="gray" stroke-width="7.627118644067796" opacity="0.5"/><path d="M490.1720670830065,290A178.88760551718192,178.88760551718192 0,0,1 132.39685604864263,290" fill="none" stroke="gray" stroke-width="15" opacity="0.5"/><path d="M490.1720670830065,290A29.34524876990463,29.34524876990463 0,0,1 431.4815695431972,290" fill="none" stroke="gray" stroke-width="0.7627118644067797" opacity="0.5"/><path d="M490.1720670830065,290A140.6370429802429,140.6370429802429 0,0,1 208.89798112252066,290" fill="none" stroke="gray" stroke-width="17.54237288135593" opacity="0.5"/><path d="M490.1720670830065,290A103.05909156554165,103.05909156554165 0,0,1 284.0538839519232,290" fill="none" stroke="gray" stroke-width="5.338983050847458" opacity="0.5"/><path d="M558.5275211831338,290A213.06533256724558,213.06533256724558 0,0,1 132.39685604864263,290" fill="none" stroke="gray" stroke-width="8.389830508474576" opacity="0.5"/><path d="M558.5275211831338,290A174.81477003030656,174.81477003030656 0,0,1 208.89798112252066,290" fill="none" stroke="gray" stroke-width="10.169491525423728" opacity="0.5"/><path d="M558.5275211831338,290A137.2368186156053,137.2368186156053 0,0,1 284.0538839519232,290" fill="none" stroke="gray" stroke-width="4.576271186440678" opacity="0.5"/><path d="M609.0360150161883,290A200.06901694683384,200.06901694683384 0,0,1 208.89798112252066,290" fill="none" stroke="gray" stroke-width="1.0169491525423728" opacity="0.5"/><path d="M658.7927684637368,290A113.6555994602698,113.6555994602698 0,0,1 431.4815695431972,290" fill="none" stroke="gray" stroke-width="1.271186440677966" opacity="0.5"/><path d="M658.7927684637368,290A224.94739367060808,224.94739367060808 0,0,1 208.89798112252066,290" fill="none" stroke="gray" stroke-width="11.186440677966102" opacity="0.5"/><path d="M658.7927684637368,290A187.36944225590682,187.36944225590682 0,0,1 284.0538839519232,290" fill="none" stroke="gray" stroke-width="7.627118644067796" opacity="0.5"/><path d="M658.7927684637368,290A24.670292666306295,24.670292666306295 0,0,1 708.1333537963494,290" fill="none" stroke="gray" stroke-width="0.7627118644067797" opacity="0.5"/><path d="M760.7047360862532,290A275.9033774818663,275.9033774818663 0,0,1 208.89798112252066,290" fill="none" stroke="gray" stroke-width="30" opacity="0.5"/><path d="M760.7047360862532,290A238.325426067165,238.325426067165 0,0,1 284.0538839519232,290" fill="none" stroke="gray" stroke-width="1.5254237288135595" opacity="0.5"/></g><g id="nodes"><g><circle cx="14.229598395821384" cy="290" r="14.229598395821384"/><text transform="translate(14.229598395821384,309.22959839582137) rotate(-90)" alignment-baseline="middle" font-family="Helvetica, Arial, sans-serif" font-size="12" text-anchor="end">Arya Stark</text></g><g><circle cx="71.47044657931943" cy="290" r="14.425284395445132"/><text transform="translate(71.47044657931943,309.42528439544515) rotate(-90)" alignment-baseline="middle" font-family="Helvetica, Arial, sans-serif" font-size="12" text-anchor="end">Cersei Lannister</text></g><g><circle cx="132.39685604864263" cy="290" r="17.915159681646543"/><text transform="translate(132.39685604864263,312.9151596816465) rotate(-90)" alignment-baseline="middle" font-family="Helvetica, Arial, sans-serif" font-size="12" text-anchor="end">Jaime Lannister</text></g><g><circle cx="208.89798112252066" cy="290" r="30"/><text transform="translate(208.89798112252066,325) rotate(-90)" alignment-baseline="middle" font-family="Helvetica, Arial, sans-serif" font-size="12" text-anchor="end">Tyrion Lannister</text></g><g><circle cx="284.0538839519232" cy="290" r="16.569937437171"/><text transform="translate(284.0538839519232,311.569937437171) rotate(-90)" alignment-baseline="middle" font-family="Helvetica, Arial, sans-serif" font-size="12" text-anchor="end">Tywin Lannister</text></g><g><circle cx="336.3610375629694" cy="290" r="7.151250781643679"/><text transform="translate(336.3610375629694,302.1512507816437) rotate(-90)" alignment-baseline="middle" font-family="Helvetica, Arial, sans-serif" font-size="12" text-anchor="end">Benjen Stark</text></g><g><circle cx="383.9213035530833" cy="290" r="11.82304981623873"/><text transform="translate(383.9213035530833,306.8230498162387) rotate(-90)" alignment-baseline="middle" font-family="Helvetica, Arial, sans-serif" font-size="12" text-anchor="end">Bran Stark</text></g><g><circle cx="431.4815695431972" cy="290" r="7.151250781643679"/><text transform="translate(431.4815695431972,302.1512507816437) rotate(-90)" alignment-baseline="middle" font-family="Helvetica, Arial, sans-serif" font-size="12" text-anchor="end">Stafford Lannister</text></g><g><circle cx="490.1720670830065" cy="290" r="22.95328136593407"/><text transform="translate(490.1720670830065,317.95328136593406) rotate(-90)" alignment-baseline="middle" font-family="Helvetica, Arial, sans-serif" font-size="12" text-anchor="end">Catelyn Stark</text></g><g><circle cx="558.5275211831338" cy="290" r="16.816207341961707"/><text transform="translate(558.5275211831338,311.81620734196173) rotate(-90)" alignment-baseline="middle" font-family="Helvetica, Arial, sans-serif" font-size="12" text-anchor="end">Eddard Stark</text></g><g><circle cx="609.0360150161883" cy="290" r="5.106321098861283"/><text transform="translate(609.0360150161883,300.10632109886126) rotate(-90)" alignment-baseline="middle" font-family="Helvetica, Arial, sans-serif" font-size="12" text-anchor="end">Rickon Stark</text></g><g><circle cx="658.7927684637368" cy="290" r="16.06446695645558"/><text transform="translate(658.7927684637368,311.0644669564556) rotate(-90)" alignment-baseline="middle" font-family="Helvetica, Arial, sans-serif" font-size="12" text-anchor="end">Robb Stark</text></g><g><circle cx="708.1333537963494" cy="290" r="4.690152983925463"/><text transform="translate(708.1333537963494,299.6901529839255) rotate(-90)" alignment-baseline="middle" font-family="Helvetica, Arial, sans-serif" font-size="12" text-anchor="end">Willem Lannister</text></g><g><circle cx="760.7047360862532" cy="290" r="19.295263913746844"/><text transform="translate(760.7047360862532,314.29526391374685) rotate(-90)" alignment-baseline="middle" font-family="Helvetica, Arial, sans-serif" font-size="12" text-anchor="end">Sansa Stark</text></g></g></g></svg>