<svg xmlns="http://www.w3.org/2000/svg" width="1700" height="1500"><rect width="1700" height="1500" x="0" y="0" fill="#FFFFFF" id="backgorund"/><g transform="translate(20,20)" id="viz"><g id="nodes"><g transform="translate(731,731)"><path id="p_2193" d="M-1.340988245066352e-13,730.0000000000001A730.0000000000001,730.0000000000001,0,1,1,1.340988245066352e-13,-730.0000000000001A730.0000000000001,730.0000000000001,0,1,1,-1.340988245066352e-13,730.0000000000001Z" fill="none" stroke="#ccc"/></g><g transform="translate(454.4950270000694,820.8511975777831)" id="Asia"><path id="p_1671.9200099831764" d="M-7.266572551848479e-14,395.573785405324A395.573785405324,395.573785405324,0,1,1,7.266572551848479e-14,-395.573785405324A395.573785405324,395.573785405324,0,1,1,-7.266572551848479e-14,395.573785405324Z" fill="none" stroke="#ccc"/></g><g transform="translate(1088.0413651809945,820.8511975777831)" id="Africa"><path id="p_2145.971515387144" d="M-4.3367000052358276e-14,236.07895262836638A236.07895262836638,236.07895262836638,0,1,1,4.3367000052358276e-14,-236.07895262836638A236.07895262836638,236.07895262836638,0,1,1,-4.3367000052358276e-14,236.07895262836638Z" fill="none" stroke="#ccc"/></g><g transform="translate(903.0551638910939,1224.1911772107583)" id="Europe"><path id="p_2334.0113614908373" d="M-3.779842103937909e-14,205.76502038898522A205.76502038898522,205.76502038898522,0,1,1,3.779842103937909e-14,-205.76502038898522A205.76502038898522,205.76502038898522,0,1,1,-3.779842103937909e-14,205.76502038898522Z" fill="none" stroke="#ccc"/></g><g transform="translate(900.2864726397067,430.96428945977107)" id="South America"><path id="p_1527.0179703754973" d="M-3.577815572911395e-14,194.76720827601937A194.76720827601937,194.76720827601937,0,1,1,3.577815572911395e-14,-194.76720827601937A194.76720827601937,194.76720827601937,0,1,1,-3.577815572911395e-14,194.76720827601937Z" fill="none" stroke="#ccc"/></g><g transform="translate(557.0259879014211,232.30849960837338)" id="North America"><path id="p_990.2740865803371" d="M-3.672830850368177e-14,199.9395990705426A199.9395990705426,199.9395990705426,0,1,1,3.672830850368177e-14,-199.9395990705426A199.9395990705426,199.9395990705426,0,1,1,-3.672830850368177e-14,199.9395990705426Z" fill="none" stroke="#ccc"/></g><g transform="translate(300.0427444120766,820.8511975777831)" id="China"><path id="p_1361.1218446599564" d="M-4.394545279075025e-14,239.2279026700966A239.2279026700966,239.2279026700966,0,1,1,4.394545279075025e-14,-239.2279026700966A239.2279026700966,239.2279026700966,0,1,1,-4.394545279075025e-14,239.2279026700966Z" fill="none" stroke="#ccc"/></g><g transform="translate(694.6697297437833,820.8511975777831)" id="India"><path id="p_1670.0264098359419" d="M-2.8198499671919992e-14,153.5054825143755A153.5054825143755,153.5054825143755,0,1,1,2.8198499671919992e-14,-153.5054825143755A153.5054825143755,153.5054825143755,0,1,1,-2.8198499671919992e-14,153.5054825143755Z" fill="none" stroke="#ccc"/></g><g transform="translate(561.6425463836862,1036.1535870750108)" id="Pakistan"><path id="p_1696.4807334712905" d="M-1.7944369909711792e-14,97.68460001259336A97.68460001259336,97.68460001259336,0,1,1,1.7944369909711792e-14,-97.68460001259336A97.68460001259336,97.68460001259336,0,1,1,-1.7944369909711792e-14,97.68460001259336Z" fill="none" stroke="#ccc"/></g><g transform="translate(556.6136907691823,636.9768642119792)" id="Japan"><path id="p_1269.1245938311667" d="M-1.3691680815777521e-14,74.53403885000532A74.53403885000532,74.53403885000532,0,1,1,1.3691680815777521e-14,-74.53403885000532A74.53403885000532,74.53403885000532,0,1,1,-1.3691680815777521e-14,74.53403885000532Z" fill="none" stroke="#ccc"/></g><g transform="translate(444.50234322543446,551.3950638032918)" id="Indonesia"><path id="p_1061.5130195867007" d="M-1.1869695464110308e-14,64.61561255797429A64.61561255797429,64.61561255797429,0,1,1,1.1869695464110308e-14,-64.61561255797429A64.61561255797429,64.61561255797429,0,1,1,-1.1869695464110308e-14,64.61561255797429Z" fill="none" stroke="#ccc"/></g><g transform="translate(974.914650799658,827.0572348526925)" id="Nigeria"><path id="p_1887.7122413793509" d="M-1.5566550809951874e-14,84.74035572700043A84.74035572700043,84.74035572700043,0,1,1,1.5566550809951874e-14,-84.74035572700043A84.74035572700043,84.74035572700043,0,1,1,-1.5566550809951874e-14,84.74035572700043Z" fill="none" stroke="#ccc"/></g><g transform="translate(1171.3170848629286,827.0572348526925)" id="Egypt"><path id="p_2109.1427979046566" d="M-2.0164142319221774e-14,109.7684781890356A109.7684781890356,109.7684781890356,0,1,1,2.0164142319221774e-14,-109.7684781890356A109.7684781890356,109.7684781890356,0,1,1,-2.0164142319221774e-14,109.7684781890356Z" fill="none" stroke="#ccc"/></g><g transform="translate(1052.7895172849198,951.7257601545307)" id="Democratic Republic of the Congo"><path id="p_2065.8736207887887" d="M-1.1087647797690585e-14,60.358343349338156A60.358343349338156,60.358343349338156,0,1,1,1.1087647797690585e-14,-60.358343349338156A60.358343349338156,60.358343349338156,0,1,1,-1.1087647797690585e-14,60.358343349338156Z" fill="none" stroke="#ccc"/></g><g transform="translate(1053.8964445906372,713.5212943375943)" id="Somalia"><path id="p_1820.0897248608787" d="M-9.491989826700503e-15,51.67198593264712A51.67198593264712,51.67198593264712,0,1,1,9.491989826700503e-15,-51.67198593264712A51.67198593264712,51.67198593264712,0,1,1,-9.491989826700503e-15,51.67198593264712Z" fill="none" stroke="#ccc"/></g><g transform="translate(1156.7141526775001,984.8774075764825)" id="Sudan"><path id="p_2189.4238116174815" d="M-8.602945009376009e-15,46.83225136349906A46.83225136349906,46.83225136349906,0,1,1,8.602945009376009e-15,-46.83225136349906A46.83225136349906,46.83225136349906,0,1,1,-8.602945009376009e-15,46.83225136349906Z" fill="none" stroke="#ccc"/></g><g transform="translate(1143.7156661396502,672.7853292947113)" id="Angola"><path id="p_1862.5605147163787" d="M-8.277299408976133e-15,45.05951928201727A45.05951928201727,45.05951928201727,0,1,1,8.277299408976133e-15,-45.05951928201727A45.05951928201727,45.05951928201727,0,1,1,-8.277299408976133e-15,45.05951928201727Z" fill="none" stroke="#ccc"/></g><g transform="translate(958.3590459602824,698.3078023819385)" id="Tanzania"><path id="p_1700.842385237732" d="M-7.931217459083444e-15,43.17553689551124A43.17553689551124,43.17553689551124,0,1,1,7.931217459083444e-15,-43.17553689551124A43.17553689551124,43.17553689551124,0,1,1,-7.931217459083444e-15,43.17553689551124Z" fill="none" stroke="#ccc"/></g><g transform="translate(948.5184251719335,952.9810401446955)" id="Ivory Coast"><path id="p_1944.5261695783038" d="M-7.720180327915831e-15,42.02670426167459A42.02670426167459,42.02670426167459,0,1,1,7.720180327915831e-15,-42.02670426167459A42.02670426167459,42.02670426167459,0,1,1,-7.720180327915831e-15,42.02670426167459Z" fill="none" stroke="#ccc"/></g><g transform="translate(1229.2183603875235,687.1549455528686)" id="South Africa"><path id="p_1957.121954630666" d="M-7.301708308346501e-15,39.748648690273995A39.748648690273995,39.748648690273995,0,1,1,7.301708308346501e-15,-39.748648690273995A39.748648690273995,39.748648690273995,0,1,1,-7.301708308346501e-15,39.748648690273995Z" fill="none" stroke="#ccc"/></g><g transform="translate(816.5848335567675,1223.4756212367724)" id="Russia"><path id="p_2158.4585840809186" d="M-2.1565686488651343e-14,117.39812928737884A117.39812928737884,117.39812928737884,0,1,1,2.1565686488651343e-14,-117.39812928737884A117.39812928737884,117.39812928737884,0,1,1,-2.1565686488651343e-14,117.39812928737884Z" fill="none" stroke="#ccc"/></g><g transform="translate(1011.7736549210309,1223.4756212367724)" id="Turkey"><path id="p_2312.146368087453" d="M-1.3942069604435747e-14,75.89709192965003A75.89709192965003,75.89709192965003,0,1,1,1.3942069604435747e-14,-75.89709192965003A75.89709192965003,75.89709192965003,0,1,1,-1.3942069604435747e-14,75.89709192965003Z" fill="none" stroke="#ccc"/></g><g transform="translate(947.9073239296022,1345.6724821280254)" id="United Kingdom"><path id="p_2354.66942818833" d="M-1.1038284510650813e-14,60.08962213070248A60.08962213070248,60.08962213070248,0,1,1,1.1038284510650813e-14,-60.08962213070248A60.08962213070248,60.08962213070248,0,1,1,-1.1038284510650813e-14,60.08962213070248Z" fill="none" stroke="#ccc"/></g><g transform="translate(943.4632993111667,1128.5135514839876)" id="Germany"><path id="p_2112.165214002876" d="M-7.19878553492399e-15,39.18836320772142A39.18836320772142,39.18836320772142,0,1,1,7.19878553492399e-15,-39.18836320772142A39.18836320772142,39.18836320772142,0,1,1,-7.19878553492399e-15,39.18836320772142Z" fill="none" stroke="#ccc"/></g><g transform="translate(881.3142857609777,1081.1641141218136)" id="Spain"><path id="p_2000.5275385536993" d="M-6.80581636267413e-15,37.04913867090824A37.04913867090824,37.04913867090824,0,1,1,6.80581636267413e-15,-37.04913867090824A37.04913867090824,37.04913867090824,0,1,1,-6.80581636267413e-15,37.04913867090824Z" fill="none" stroke="#ccc"/></g><g transform="translate(854.4284180365028,1373.6721471227906)" id="Ukraine"><path id="p_2264.699549695867" d="M-6.5394273698417296e-15,35.59898453657405A35.59898453657405,35.59898453657405,0,1,1,6.5394273698417296e-15,-35.59898453657405A35.59898453657405,35.59898453657405,0,1,1,-6.5394273698417296e-15,35.59898453657405Z" fill="none" stroke="#ccc"/></g><g transform="translate(1017.7745956702302,1110.4511243734444)" id="Italy"><path id="p_2164.61872017147" d="M-6.50158864780909e-15,35.39300012779603A35.39300012779603,35.39300012779603,0,1,1,6.50158864780909e-15,-35.39300012779603A35.39300012779603,35.39300012779603,0,1,1,-6.50158864780909e-15,35.39300012779603Z" fill="none" stroke="#ccc"/></g><g transform="translate(1039.8802217450022,1329.0663732838152)" id="France"><path id="p_2401.4234004820332" d="M-5.782195356849615e-15,31.476805453215327A31.476805453215327,31.476805453215327,0,1,1,5.782195356849615e-15,-31.476805453215327A31.476805453215327,31.476805453215327,0,1,1,-5.782195356849615e-15,31.476805453215327Z" fill="none" stroke="#ccc"/></g><g transform="translate(813.1908711410755,1074.7396730383343)" id="Belarus"><path id="p_1918.4134808253077" d="M-5.415927598929426e-15,29.482936645897716A29.482936645897716,29.482936645897716,0,1,1,5.415927598929426e-15,-29.482936645897716A29.482936645897716,29.482936645897716,0,1,1,-5.415927598929426e-15,29.482936645897716Z" fill="none" stroke="#ccc"/></g><g transform="translate(834.4163488836713,426.16396576661094)" id="Brazil"><path id="p_1388.4091174481816" d="M-2.3298073107920756e-14,126.82880279789941A126.82880279789941,126.82880279789941,0,1,1,2.3298073107920756e-14,-126.82880279789941A126.82880279789941,126.82880279789941,0,1,1,-2.3298073107920756e-14,126.82880279789941Z" fill="none" stroke="#ccc"/></g><g transform="translate(1023.9641099550406,426.16396576661094)" id="Peru"><path id="p_1511.953433847887" d="M-1.1173437020442831e-14,60.82535812623533A60.82535812623533,60.82535812623533,0,1,1,1.1173437020442831e-14,-60.82535812623533A60.82535812623533,60.82535812623533,0,1,1,-1.1173437020442831e-14,60.82535812623533Z" fill="none" stroke="#ccc"/></g><g transform="translate(982.4746058104517,538.7842345038316)" id="Colombia"><path id="p_1579.5594799596852" d="M-1.0525956739625597e-14,57.30063964540186A57.30063964540186,57.30063964540186,0,1,1,1.0525956739625597e-14,-57.30063964540186A57.30063964540186,57.30063964540186,0,1,1,-1.0525956739625597e-14,57.30063964540186Z" fill="none" stroke="#ccc"/></g><g transform="translate(979.3286002066358,324.55034003244066)" id="Chile"><path id="p_1353.1449253829187" d="M-8.86631763211501e-15,48.265985143842215A48.265985143842215,48.265985143842215,0,1,1,8.86631763211501e-15,-48.265985143842215A48.265985143842215,48.265985143842215,0,1,1,-8.86631763211501e-15,48.265985143842215Z" fill="none" stroke="#ccc"/></g><g transform="translate(906.1036001161326,275.9344693203234)" id="Venezuela"><path id="p_1220.7727588357793" d="M-6.931749988455109e-15,37.73468939932321A37.73468939932321,37.73468939932321,0,1,1,6.931749988455109e-15,-37.73468939932321A37.73468939932321,37.73468939932321,0,1,1,-6.931749988455109e-15,37.73468939932321Z" fill="none" stroke="#ccc"/></g><g transform="translate(895.9230163379317,579.4329608182982)" id="Argentina"><path id="p_1512.783369807346" d="M-6.69160347172093e-15,36.42739265111587A36.42739265111587,36.42739265111587,0,1,1,6.69160347172093e-15,-36.42739265111587A36.42739265111587,36.42739265111587,0,1,1,-6.69160347172093e-15,36.42739265111587Z" fill="none" stroke="#ccc"/></g><g transform="translate(468.6323699147039,232.30849960837338)" id="United States"><path id="p_811.5932504596681" d="M-2.0142815599932326e-14,109.6523809365908A109.6523809365908,109.6523809365908,0,1,1,2.0142815599932326e-14,-109.6523809365908A109.6523809365908,109.6523809365908,0,1,1,-2.0142815599932326e-14,109.6523809365908Z" fill="none" stroke="#ccc"/></g><g transform="translate(667.6251689116292,232.30849960837338)" id="Mexico"><path id="p_988.3804864331025" d="M-1.606371984793489e-14,87.44681791309993A87.44681791309993,87.44681791309993,0,1,1,1.606371984793489e-14,-87.44681791309993A87.44681791309993,87.44681791309993,0,1,1,-1.606371984793489e-14,87.44681791309993Z" fill="none" stroke="#ccc"/></g><g transform="translate(586.2808212696783,360.19523896862006)" id="Canada"><path id="p_1009.7005490577895" d="M-1.1430453159205523e-14,62.22448881949119A62.22448881949119,62.22448881949119,0,1,1,1.1430453159205523e-14,-62.22448881949119A62.22448881949119,62.22448881949119,0,1,1,-1.1430453159205523e-14,62.22448881949119Z" fill="none" stroke="#ccc"/></g><g transform="translate(582.7572890099393,147.48610790003454)" id="Cuba"><path id="p_761.8921249176506" d="M-5.63007999788087e-15,30.648728007676723A30.648728007676723,30.648728007676723,0,1,1,5.63007999788087e-15,-30.648728007676723A30.648728007676723,30.648728007676723,0,1,1,-5.63007999788087e-15,30.648728007676723Z" fill="none" stroke="#ccc"/></g><g transform="translate(254.7331195029805,826.5782315692655)" id="Shanghai"><path id="p_1179.632567596457" d="M-1.7877617445825238e-14,97.32121652421107A97.32121652421107,97.32121652421107,0,1,1,1.7877617445825238e-14,-97.32121652421107A97.32121652421107,97.32121652421107,0,1,1,-1.7877617445825238e-14,97.32121652421107Z" fill="#ff7f0e" stroke="none"/></g><g transform="translate(445.60618236759893,826.5782315692655)" id="Beijing"><path id="p_1364.8426601300373" d="M-1.6837346672389372e-14,91.6582461931728A91.6582461931728,91.6582461931728,0,1,1,1.6837346672389372e-14,-91.6582461931728A91.6582461931728,91.6582461931728,0,1,1,-1.6837346672389372e-14,91.6582461931728Z" fill="#ff7f0e" stroke="none"/></g><g transform="translate(355.31488958013057,971.3153596956954)" id="Tianjin"><path id="p_1404.6695920734244" d="M-1.4151897684824212e-14,77.03934279759854A77.03934279759854,77.03934279759854,0,1,1,1.4151897684824212e-14,-77.03934279759854A77.03934279759854,77.03934279759854,0,1,1,-1.4151897684824212e-14,77.03934279759854Z" fill="#ff7f0e" stroke="none"/></g><g transform="translate(355.1495522709024,688.5612895209194)" id="Guangzhou"><path id="p_1116.1774132744779" d="M-1.3128196201840534e-14,71.46657148265604A71.46657148265604,71.46657148265604,0,1,1,1.3128196201840534e-14,-71.46657148265604A71.46657148265604,71.46657148265604,0,1,1,-1.3128196201840534e-14,71.46657148265604Z" fill="#ff7f0e" stroke="none"/></g><g transform="translate(219.51823055477118,667.2784949967973)" id="Shenzhen"><path id="p_951.7275324061388" d="M-1.1743898697203566e-14,63.93080685457024A63.93080685457024,63.93080685457024,0,1,1,1.1743898697203566e-14,-63.93080685457024A63.93080685457024,63.93080685457024,0,1,1,-1.1743898697203566e-14,63.93080685457024Z" fill="#ff7f0e" stroke="none"/></g><g transform="translate(624.0213880654915,820.8511975777831)" id="Delhi"><path id="p_1526.8361263321237" d="M-1.4872761142835332e-14,80.96354068884911A80.96354068884911,80.96354068884911,0,1,1,1.4872761142835332e-14,-80.96354068884911A80.96354068884911,80.96354068884911,0,1,1,-1.4872761142835332e-14,80.96354068884911Z" fill="#ff7f0e" stroke="none"/></g><g transform="translate(776.5800705062496,820.8511975777831)" id="Mumbai"><path id="p_1668.132809688707" d="M-1.280396547327011e-14,69.70154160467453A69.70154160467453,69.70154160467453,0,1,1,1.280396547327011e-14,-69.70154160467453A69.70154160467453,69.70154160467453,0,1,1,-1.280396547327011e-14,69.70154160467453Z" fill="#ff7f0e" stroke="none"/></g><g transform="translate(561.6425463836862,1036.1535870750108)" id="Karachi"><path id="p_1694.587133324056" d="M-1.759652120583543e-14,95.7909998653588A95.7909998653588,95.7909998653588,0,1,1,1.759652120583543e-14,-95.7909998653588A95.7909998653588,95.7909998653588,0,1,1,-1.759652120583543e-14,95.7909998653588Z" fill="#ff7f0e" stroke="none"/></g><g transform="translate(556.6136907691823,636.9768642119792)" id="Tokyo"><path id="p_1267.2309936839322" d="M-1.3343832111901156e-14,72.64043870277075A72.64043870277075,72.64043870277075,0,1,1,1.3343832111901156e-14,-72.64043870277075A72.64043870277075,72.64043870277075,0,1,1,-1.3343832111901156e-14,72.64043870277075Z" fill="#ff7f0e" stroke="none"/></g><g transform="translate(444.50234322543446,551.3950638032918)" id="Jakarta"><path id="p_1059.6194194394661" d="M-1.1521846760233944e-14,62.72201241073972A62.72201241073972,62.72201241073972,0,1,1,1.1521846760233944e-14,-62.72201241073972A62.72201241073972,62.72201241073972,0,1,1,-1.1521846760233944e-14,62.72201241073972Z" fill="#ff7f0e" stroke="none"/></g><g transform="translate(974.914650799658,827.0572348526925)" id="Lagos"><path id="p_1885.8186412321163" d="M-1.5218702106075507e-14,82.84675557976587A82.84675557976587,82.84675557976587,0,1,1,1.5218702106075507e-14,-82.84675557976587A82.84675557976587,82.84675557976587,0,1,1,-1.5218702106075507e-14,82.84675557976587Z" fill="#1f77b4" stroke="none"/></g><g transform="translate(1128.9822702947306,827.0572348526925)" id="Cairo"><path id="p_2022.5795686210263" d="M-1.2039514342329352e-14,65.54006347360307A65.54006347360307,65.54006347360307,0,1,1,1.2039514342329352e-14,-65.54006347360307A65.54006347360307,65.54006347360307,0,1,1,-1.2039514342329352e-14,65.54006347360307Z" fill="#1f77b4" stroke="none"/></g><g transform="translate(1237.803948410149,827.0572348526925)" id="Alexandria"><path id="p_2107.249197757422" d="M-7.602854921077873e-15,41.38801449458068A41.38801449458068,41.38801449458068,0,1,1,7.602854921077873e-15,-41.38801449458068A41.38801449458068,41.38801449458068,0,1,1,-7.602854921077873e-15,41.38801449458068Z" fill="#1f77b4" stroke="none"/></g><g transform="translate(1052.7895172849198,951.7257601545307)" id="Kinshasa-Brazzaville"><path id="p_2063.980020641554" d="M-1.0739799093814218e-14,58.464743202103584A58.464743202103584,58.464743202103584,0,1,1,1.0739799093814218e-14,-58.464743202103584A58.464743202103584,58.464743202103584,0,1,1,-1.0739799093814218e-14,58.464743202103584Z" fill="#1f77b4" stroke="none"/></g><g transform="translate(1053.8964445906372,713.5212943375943)" id="Mogadishu"><path id="p_1818.1961247136442" d="M-9.144141122824138e-15,49.77838578541255A49.77838578541255,49.77838578541255,0,1,1,9.144141122824138e-15,-49.77838578541255A49.77838578541255,49.77838578541255,0,1,1,-9.144141122824138e-15,49.77838578541255Z" fill="#1f77b4" stroke="none"/></g><g transform="translate(1156.7141526775001,984.8774075764825)" id="Khartoum-Omdurman"><path id="p_2187.530211470247" d="M-8.255096305499643e-15,44.938651216264496A44.938651216264496,44.938651216264496,0,1,1,8.255096305499643e-15,-44.938651216264496A44.938651216264496,44.938651216264496,0,1,1,-8.255096305499643e-15,44.938651216264496Z" fill="#1f77b4" stroke="none"/></g><g transform="translate(1143.7156661396502,672.7853292947113)" id="Luanda"><path id="p_1860.6669145691442" d="M-7.929450705099767e-15,43.1659191347827A43.1659191347827,43.1659191347827,0,1,1,7.929450705099767e-15,-43.1659191347827A43.1659191347827,43.1659191347827,0,1,1,-7.929450705099767e-15,43.1659191347827Z" fill="#1f77b4" stroke="none"/></g><g transform="translate(958.3590459602824,698.3078023819385)" id="Dar es Salaam"><path id="p_1698.9487850904975" d="M-7.583368755207077e-15,41.28193674827667A41.28193674827667,41.28193674827667,0,1,1,7.583368755207077e-15,-41.28193674827667A41.28193674827667,41.28193674827667,0,1,1,-7.583368755207077e-15,41.28193674827667Z" fill="#1f77b4" stroke="none"/></g><g transform="translate(948.5184251719335,952.9810401446955)" id="Abidjan"><path id="p_1942.6325694310692" d="M-7.372331624039466e-15,40.13310411444002A40.13310411444002,40.13310411444002,0,1,1,7.372331624039466e-15,-40.13310411444002A40.13310411444002,40.13310411444002,0,1,1,-7.372331624039466e-15,40.13310411444002Z" fill="#1f77b4" stroke="none"/></g><g transform="translate(1229.2183603875235,687.1549455528686)" id="Greater Johannesburg"><path id="p_1955.2283544834315" d="M-6.953859604470137e-15,37.85504854303943A37.85504854303943,37.85504854303943,0,1,1,6.953859604470137e-15,-37.85504854303943A37.85504854303943,37.85504854303943,0,1,1,-6.953859604470137e-15,37.85504854303943Z" fill="#1f77b4" stroke="none"/></g><g transform="translate(770.4667327278532,1223.4756212367724)" id="Moscow"><path id="p_2064.3287822758557" d="M-1.2746080100342266e-14,69.38642831123A69.38642831123,69.38642831123,0,1,1,1.2746080100342266e-14,-69.38642831123A69.38642831123,69.38642831123,0,1,1,-1.2746080100342266e-14,69.38642831123Z" fill="#2ca02c" stroke="none"/></g><g transform="translate(886.9180619416148,1223.4756212367724)" id="Saint Petersburg"><path id="p_2156.5649839336843" d="M-8.29783333249453e-15,45.17130075529698A45.17130075529698,45.17130075529698,0,1,1,8.29783333249453e-15,-45.17130075529698A45.17130075529698,45.17130075529698,0,1,1,-8.29783333249453e-15,45.17130075529698Z" fill="#2ca02c" stroke="none"/></g><g transform="translate(1011.7736549210309,1223.4756212367724)" id="Istanbul"><path id="p_2310.2527679402187" d="M-1.3594220900559382e-14,74.00349178241547A74.00349178241547,74.00349178241547,0,1,1,1.3594220900559382e-14,-74.00349178241547A74.00349178241547,74.00349178241547,0,1,1,-1.3594220900559382e-14,74.00349178241547Z" fill="#2ca02c" stroke="none"/></g><g transform="translate(947.9073239296022,1345.6724821280254)" id="London"><path id="p_2352.7758280410953" d="M-1.0690435806774447e-14,58.196021983467915A58.196021983467915,58.196021983467915,0,1,1,1.0690435806774447e-14,-58.196021983467915A58.196021983467915,58.196021983467915,0,1,1,-1.0690435806774447e-14,58.196021983467915Z" fill="#2ca02c" stroke="none"/></g><g transform="translate(943.4632993111667,1128.5135514839876)" id="Berlin"><path id="p_2110.271613855641" d="M-6.8509368310476245e-15,37.29476306048685A37.29476306048685,37.29476306048685,0,1,1,6.8509368310476245e-15,-37.29476306048685A37.29476306048685,37.29476306048685,0,1,1,-6.8509368310476245e-15,37.29476306048685Z" fill="#2ca02c" stroke="none"/></g><g transform="translate(881.3142857609777,1081.1641141218136)" id="Madrid"><path id="p_1998.6339384064647" d="M-6.457967658797765e-15,35.15553852367368A35.15553852367368,35.15553852367368,0,1,1,6.457967658797765e-15,-35.15553852367368A35.15553852367368,35.15553852367368,0,1,1,-6.457967658797765e-15,35.15553852367368Z" fill="#2ca02c" stroke="none"/></g><g transform="translate(854.4284180365028,1373.6721471227906)" id="Kiev"><path id="p_2262.8059495486327" d="M-6.1915786659653636e-15,33.70538438933948A33.70538438933948,33.70538438933948,0,1,1,6.1915786659653636e-15,-33.70538438933948A33.70538438933948,33.70538438933948,0,1,1,-6.1915786659653636e-15,33.70538438933948Z" fill="#2ca02c" stroke="none"/></g><g transform="translate(1017.7745956702302,1110.4511243734444)" id="Rome"><path id="p_2162.725120024236" d="M-6.153739943932724e-15,33.499399980561456A33.499399980561456,33.499399980561456,0,1,1,6.153739943932724e-15,-33.499399980561456A33.499399980561456,33.499399980561456,0,1,1,-6.153739943932724e-15,33.499399980561456Z" fill="#2ca02c" stroke="none"/></g><g transform="translate(1039.8802217450022,1329.0663732838152)" id="Paris"><path id="p_2399.5298003347984" d="M-5.434346652973249e-15,29.58320530598076A29.58320530598076,29.58320530598076,0,1,1,5.434346652973249e-15,-29.58320530598076A29.58320530598076,29.58320530598076,0,1,1,-5.434346652973249e-15,29.58320530598076Z" fill="#2ca02c" stroke="none"/></g><g transform="translate(813.1908711410755,1074.7396730383343)" id="Minsk"><path id="p_1916.5198806780732" d="M-5.06807889505306e-15,27.589336498663148A27.589336498663148,27.589336498663148,0,1,1,5.06807889505306e-15,-27.589336498663148A27.589336498663148,27.589336498663148,0,1,1,-5.06807889505306e-15,27.589336498663148Z" fill="#2ca02c" stroke="none"/></g><g transform="translate(787.117019532961,440.5801109895815)" id="São Paulo"><path id="p_1297.0565538410317" d="M-1.2557422343782027e-14,68.35942331848929A68.35942331848929,68.35942331848929,0,1,1,1.2557422343782027e-14,-68.35942331848929A68.35942331848929,68.35942331848929,0,1,1,-1.2557422343782027e-14,68.35942331848929Z" fill="#9467bd" stroke="none"/></g><g transform="translate(907.6581574888297,440.5801109895815)" id="Rio de Janeiro"><path id="p_1399.526382968556" d="M-9.237776766826734e-15,50.288114490144885A50.288114490144885,50.288114490144885,0,1,1,9.237776766826734e-15,-50.288114490144885A50.288114490144885,50.288114490144885,0,1,1,-9.237776766826734e-15,50.288114490144885Z" fill="#9467bd" stroke="none"/></g><g transform="translate(861.6282952322681,513.1705805223071)" id="Salvador"><path id="p_1409.5713610514608" d="M-6.2039049027122975e-15,33.77248529688559A33.77248529688559,33.77248529688559,0,1,1,6.2039049027122975e-15,-33.77248529688559A33.77248529688559,33.77248529688559,0,1,1,-6.2039049027122975e-15,33.77248529688559Z" fill="#9467bd" stroke="none"/></g><g transform="translate(861.6228697073517,368.035940125982)" id="Brasília"><path id="p_1264.3951052253458" d="M-6.1972569250375725e-15,33.736295392012046A33.736295392012046,33.736295392012046,0,1,1,6.1972569250375725e-15,-33.736295392012046A33.736295392012046,33.736295392012046,0,1,1,-6.1972569250375725e-15,33.736295392012046Z" fill="#9467bd" stroke="none"/></g><g transform="translate(800.5625065085687,339.4083297727231)" id="Fortaleza"><path id="p_1172.7791200509894" d="M-5.843086935739629e-15,31.808283769697592A31.808283769697592,31.808283769697592,0,1,1,5.843086935739629e-15,-31.808283769697592A31.808283769697592,31.808283769697592,0,1,1,-5.843086935739629e-15,31.808283769697592Z" fill="#9467bd" stroke="none"/></g><g transform="translate(1023.9641099550406,426.16396576661094)" id="Lima"><path id="p_1510.0598337006525" d="M-1.0825588316566466e-14,58.931757979000764A58.931757979000764,58.931757979000764,0,1,1,1.0825588316566466e-14,-58.931757979000764A58.931757979000764,58.931757979000764,0,1,1,-1.0825588316566466e-14,58.931757979000764Z" fill="#9467bd" stroke="none"/></g><g transform="translate(982.4746058104517,538.7842345038316)" id="Bogotá"><path id="p_1577.6658798124506" d="M-1.0178108035749231e-14,55.40703949816729A55.40703949816729,55.40703949816729,0,1,1,1.0178108035749231e-14,-55.40703949816729A55.40703949816729,55.40703949816729,0,1,1,-1.0178108035749231e-14,55.40703949816729Z" fill="#9467bd" stroke="none"/></g><g transform="translate(979.3286002066358,324.55034003244066)" id="Santiago"><path id="p_1351.2513252356841" d="M-8.518468928238645e-15,46.37238499660765A46.37238499660765,46.37238499660765,0,1,1,8.518468928238645e-15,-46.37238499660765A46.37238499660765,46.37238499660765,0,1,1,-8.518468928238645e-15,46.37238499660765Z" fill="#9467bd" stroke="none"/></g><g transform="translate(906.1036001161326,275.9344693203234)" id="Caracas"><path id="p_1218.8791586885445" d="M-6.583901284578742e-15,35.841089252088636A35.841089252088636,35.841089252088636,0,1,1,6.583901284578742e-15,-35.841089252088636A35.841089252088636,35.841089252088636,0,1,1,-6.583901284578742e-15,35.841089252088636Z" fill="#9467bd" stroke="none"/></g><g transform="translate(895.9230163379317,579.4329608182982)" id="Buenos Aires"><path id="p_1510.8897696601114" d="M-6.343754767844565e-15,34.53379250388131A34.53379250388131,34.53379250388131,0,1,1,6.343754767844565e-15,-34.53379250388131A34.53379250388131,34.53379250388131,0,1,1,-6.343754767844565e-15,34.53379250388131Z" fill="#9467bd" stroke="none"/></g><g transform="translate(428.81504526479483,237.61934081269322)" id="New York City"><path id="p_725.2152616214921" d="M-1.0614174643034418e-14,57.78087554400403A57.78087554400403,57.78087554400403,0,1,1,1.0614174643034418e-14,-57.78087554400403A57.78087554400403,57.78087554400403,0,1,1,-1.0614174643034418e-14,57.78087554400403Z" fill="#d62728" stroke="none"/></g><g transform="translate(527.8707257831032,237.61934081269322)" id="Los Angeles"><path id="p_805.8712714228662" d="M-7.234209965705606e-15,39.381204827069844A39.381204827069844,39.381204827069844,0,1,1,7.234209965705606e-15,-39.381204827069844A39.381204827069844,39.381204827069844,0,1,1,-7.234209965705606e-15,39.381204827069844Z" fill="#d62728" stroke="none"/></g><g transform="translate(493.77268816361726,303.1457873077753)" id="Chicago"><path id="p_830.5110608650493" d="M-5.987160806741757e-15,32.59258539365664A32.59258539365664,32.59258539365664,0,1,1,5.987160806741757e-15,-32.59258539365664A32.59258539365664,32.59258539365664,0,1,1,-5.987160806741757e-15,32.59258539365664Z" fill="#d62728" stroke="none"/></g><g transform="translate(493.2805587703919,175.36565389014618)" id="Houston"><path id="p_699.5893912958373" d="M-5.50047268080249e-15,29.943178635299223A29.943178635299223,29.943178635299223,0,1,1,5.50047268080249e-15,-29.943178635299223A29.943178635299223,29.943178635299223,0,1,1,-5.50047268080249e-15,29.943178635299223Z" fill="#d62728" stroke="none"/></g><g transform="translate(440.86540054375865,154.0701583751575)" id="Philadelphia"><path id="p_620.6748081089424" d="M-4.5445263500811694e-15,24.739249190026303A24.739249190026303,24.739249190026303,0,1,1,4.5445263500811694e-15,-24.739249190026303A24.739249190026303,24.739249190026303,0,1,1,-4.5445263500811694e-15,24.739249190026303Z" fill="#d62728" stroke="none"/></g><g transform="translate(641.0839613499777,232.30849960837338)" id="Mexico City"><path id="p_933.404471162565" d="M-1.084033041117621e-14,59.01201020421382A59.01201020421382,59.01201020421382,0,1,1,1.084033041117621e-14,-59.01201020421382A59.01201020421382,59.01201020421382,0,1,1,-1.084033041117621e-14,59.01201020421382Z" fill="#d62728" stroke="none"/></g><g transform="translate(727.5839791894603,232.30849960837338)" id="Ecatepec de Morelos"><path id="p_986.4868862858679" d="M-4.701616380944132e-15,25.59440748803427A25.59440748803427,25.59440748803427,0,1,1,4.701616380944132e-15,-25.59440748803427A25.59440748803427,25.59440748803427,0,1,1,-4.701616380944132e-15,25.59440748803427Z" fill="#d62728" stroke="none"/></g><g transform="translate(559.1711173583451,360.19523896862006)" id="Toronto"><path id="p_953.5875410878886" d="M-6.1026326372021485e-15,33.22118476092339A33.22118476092339,33.22118476092339,0,1,1,6.1026326372021485e-15,-33.22118476092339A33.22118476092339,33.22118476092339,0,1,1,-6.1026326372021485e-15,33.22118476092339Z" fill="#d62728" stroke="none"/></g><g transform="translate(620.448806104219,360.19523896862006)" id="Montreal"><path id="p_1007.806948910555" d="M-4.8060474661888265e-15,26.16290383771595A26.16290383771595,26.16290383771595,0,1,1,4.8060474661888265e-15,-26.16290383771595A26.16290383771595,26.16290383771595,0,1,1,-4.8060474661888265e-15,26.16290383771595Z" fill="#d62728" stroke="none"/></g><g transform="translate(582.7572890099393,147.48610790003454)" id="Havana"><path id="p_759.998524770416" d="M-5.2822312940045045e-15,28.755127860442155A28.755127860442155,28.755127860442155,0,1,1,5.2822312940045045e-15,-28.755127860442155A28.755127860442155,28.755127860442155,0,1,1,-5.2822312940045045e-15,28.755127860442155Z" fill="#d62728" stroke="none"/></g></g><g id="labels"><g transform="translate(254.7331195029805,826.5782315692655)"><text text-anchor="middle" dominant-baseline="text-before-edge" transform="translate(0,-5.599999904632568)"><tspan x="0" y="0" dy="0" style="font-family: Arial, sans-serif; font-size: 10px; fill: black; font-weight: bold;">Shanghai</tspan></text></g><g transform="translate(445.60618236759893,826.5782315692655)"><text text-anchor="middle" dominant-baseline="text-before-edge" transform="translate(0,-5.599999904632568)"><tspan x="0" y="0" dy="0" style="font-family: Arial, sans-serif; font-size: 10px; fill: black; font-weight: bold;">Beijing</tspan></text></g><g transform="translate(355.31488958013057,971.3153596956954)"><text text-anchor="middle" dominant-baseline="text-before-edge" transform="translate(0,-5.599999904632568)"><tspan x="0" y="0" dy="0" style="font-family: Arial, sans-serif; font-size: 10px; fill: black; font-weight: bold;">Tianjin</tspan></text></g><g transform="translate(355.1495522709024,688.5612895209194)"><text text-anchor="middle" dominant-baseline="text-before-edge" transform="translate(0,-5.599999904632568)"><tspan x="0" y="0" dy="0" style="font-family: Arial, sans-serif; font-size: 10px; fill: black; font-weight: bold;">Guangzhou</tspan></text></g><g transform="translate(219.51823055477118,667.2784949967973)"><text text-anchor="middle" dominant-baseline="text-before-edge" transform="translate(0,-5.599999904632568)"><tspan x="0" y="0" dy="0" style="font-family: Arial, sans-serif; font-size: 10px; fill: black; font-weight: bold;">Shenzhen</tspan></text></g><g transform="translate(624.0213880654915,820.8511975777831)"><text text-anchor="middle" dominant-baseline="text-before-edge" transform="translate(0,-5.599999904632568)"><tspan x="0" y="0" dy="0" style="font-family: Arial, sans-serif; font-size: 10px; fill: black; font-weight: bold;">Delhi</tspan></text></g><g transform="translate(776.5800705062496,820.8511975777831)"><text text-anchor="middle" dominant-baseline="text-before-edge" transform="translate(0,-5.599999904632568)"><tspan x="0" y="0" dy="0" style="font-family: Arial, sans-serif; font-size: 10px; fill: black; font-weight: bold;">Mumbai</tspan></text></g><g transform="translate(561.6425463836862,1036.1535870750108)"><text text-anchor="middle" dominant-baseline="text-before-edge" transform="translate(0,-5.599999904632568)"><tspan x="0" y="0" dy="0" style="font-family: Arial, sans-serif; font-size: 10px; fill: black; font-weight: bold;">Karachi</tspan></text></g><g transform="translate(556.6136907691823,636.9768642119792)"><text text-anchor="middle" dominant-baseline="text-before-edge" transform="translate(0,-5.599999904632568)"><tspan x="0" y="0" dy="0" style="font-family: Arial, sans-serif; font-size: 10px; fill: black; font-weight: bold;">Tokyo</tspan></text></g><g transform="translate(444.50234322543446,551.3950638032918)"><text text-anchor="middle" dominant-baseline="text-before-edge" transform="translate(0,-5.599999904632568)"><tspan x="0" y="0" dy="0" style="font-family: Arial, sans-serif; font-size: 10px; fill: black; font-weight: bold;">Jakarta</tspan></text></g><g transform="translate(974.914650799658,827.0572348526925)"><text text-anchor="middle" dominant-baseline="text-before-edge" transform="translate(0,-5.599999904632568)"><tspan x="0" y="0" dy="0" style="font-family: Arial, sans-serif; font-size: 10px; fill: black; font-weight: bold;">Lagos</tspan></text></g><g transform="translate(1128.9822702947306,827.0572348526925)"><text text-anchor="middle" dominant-baseline="text-before-edge" transform="translate(0,-5.599999904632568)"><tspan x="0" y="0" dy="0" style="font-family: Arial, sans-serif; font-size: 10px; fill: black; font-weight: bold;">Cairo</tspan></text></g><g transform="translate(1237.803948410149,827.0572348526925)"><text text-anchor="middle" dominant-baseline="text-before-edge" transform="translate(0,-5.599999904632568)"><tspan x="0" y="0" dy="0" style="font-family: Arial, sans-serif; font-size: 10px; fill: black; font-weight: bold;">Alexandria</tspan></text></g><g transform="translate(1052.7895172849198,951.7257601545307)"><text text-anchor="middle" dominant-baseline="text-before-edge" transform="translate(0,-5.599999904632568)"><tspan x="0" y="0" dy="0" style="font-family: Arial, sans-serif; font-size: 10px; fill: black; font-weight: bold;">Kinshasa-Brazzaville</tspan></text></g><g transform="translate(1053.8964445906372,713.5212943375943)"><text text-anchor="middle" dominant-baseline="text-before-edge" transform="translate(0,-5.599999904632568)"><tspan x="0" y="0" dy="0" style="font-family: Arial, sans-serif; font-size: 10px; fill: black; font-weight: bold;">Mogadishu</tspan></text></g><g transform="translate(1156.7141526775001,984.8774075764825)"><text text-anchor="middle" dominant-baseline="text-before-edge" transform="translate(0,-5.599999904632568)"><tspan x="0" y="0" dy="0" style="font-family: Arial, sans-serif; font-size: 10px; fill: black; font-weight: bold;">Khartoum-Omdurman</tspan></text></g><g transform="translate(1143.7156661396502,672.7853292947113)"><text text-anchor="middle" dominant-baseline="text-before-edge" transform="translate(0,-5.599999904632568)"><tspan x="0" y="0" dy="0" style="font-family: Arial, sans-serif; font-size: 10px; fill: black; font-weight: bold;">Luanda</tspan></text></g><g transform="translate(958.3590459602824,698.3078023819385)"><text text-anchor="middle" dominant-baseline="text-before-edge" transform="translate(0,-5.599999904632568)"><tspan x="0" y="0" dy="0" style="font-family: Arial, sans-serif; font-size: 10px; fill: black; font-weight: bold;">Dar es Salaam</tspan></text></g><g transform="translate(948.5184251719335,952.9810401446955)"><text text-anchor="middle" dominant-baseline="text-before-edge" transform="translate(0,-5.599999904632568)"><tspan x="0" y="0" dy="0" style="font-family: Arial, sans-serif; font-size: 10px; fill: black; font-weight: bold;">Abidjan</tspan></text></g><g transform="translate(1229.2183603875235,687.1549455528686)"><text text-anchor="middle" dominant-baseline="text-before-edge" transform="translate(0,-5.599999904632568)"><tspan x="0" y="0" dy="0" style="font-family: Arial, sans-serif; font-size: 10px; fill: black; font-weight: bold;">Greater Johannesburg</tspan></text></g><g transform="translate(770.4667327278532,1223.4756212367724)"><text text-anchor="middle" dominant-baseline="text-before-edge" transform="translate(0,-5.599999904632568)"><tspan x="0" y="0" dy="0" style="font-family: Arial, sans-serif; font-size: 10px; fill: black; font-weight: bold;">Moscow</tspan></text></g><g transform="translate(886.9180619416148,1223.4756212367724)"><text text-anchor="middle" dominant-baseline="text-before-edge" transform="translate(0,-5.599999904632568)"><tspan x="0" y="0" dy="0" style="font-family: Arial, sans-serif; font-size: 10px; fill: black; font-weight: bold;">Saint Petersburg</tspan></text></g><g transform="translate(1011.7736549210309,1223.4756212367724)"><text text-anchor="middle" dominant-baseline="text-before-edge" transform="translate(0,-5.599999904632568)"><tspan x="0" y="0" dy="0" style="font-family: Arial, sans-serif; font-size: 10px; fill: black; font-weight: bold;">Istanbul</tspan></text></g><g transform="translate(947.9073239296022,1345.6724821280254)"><text text-anchor="middle" dominant-baseline="text-before-edge" transform="translate(0,-5.599999904632568)"><tspan x="0" y="0" dy="0" style="font-family: Arial, sans-serif; font-size: 10px; fill: black; font-weight: bold;">London</tspan></text></g><g transform="translate(943.4632993111667,1128.5135514839876)"><text text-anchor="middle" dominant-baseline="text-before-edge" transform="translate(0,-5.599999904632568)"><tspan x="0" y="0" dy="0" style="font-family: Arial, sans-serif; font-size: 10px; fill: black; font-weight: bold;">Berlin</tspan></text></g><g transform="translate(881.3142857609777,1081.1641141218136)"><text text-anchor="middle" dominant-baseline="text-before-edge" transform="translate(0,-5.599999904632568)"><tspan x="0" y="0" dy="0" style="font-family: Arial, sans-serif; font-size: 10px; fill: black; font-weight: bold;">Madrid</tspan></text></g><g transform="translate(854.4284180365028,1373.6721471227906)"><text text-anchor="middle" dominant-baseline="text-before-edge" transform="translate(0,-5.599999904632568)"><tspan x="0" y="0" dy="0" style="font-family: Arial, sans-serif; font-size: 10px; fill: black; font-weight: bold;">Kiev</tspan></text></g><g transform="translate(1017.7745956702302,1110.4511243734444)"><text text-anchor="middle" dominant-baseline="text-before-edge" transform="translate(0,-5.599999904632568)"><tspan x="0" y="0" dy="0" style="font-family: Arial, sans-serif; font-size: 10px; fill: black; font-weight: bold;">Rome</tspan></text></g><g transform="translate(1039.8802217450022,1329.0663732838152)"><text text-anchor="middle" dominant-baseline="text-before-edge" transform="translate(0,-5.599999904632568)"><tspan x="0" y="0" dy="0" style="font-family: Arial, sans-serif; font-size: 10px; fill: black; font-weight: bold;">Paris</tspan></text></g><g transform="translate(813.1908711410755,1074.7396730383343)"><text text-anchor="middle" dominant-baseline="text-before-edge" transform="translate(0,-5.599999904632568)"><tspan x="0" y="0" dy="0" style="font-family: Arial, sans-serif; font-size: 10px; fill: black; font-weight: bold;">Minsk</tspan></text></g><g transform="translate(787.117019532961,440.5801109895815)"><text text-anchor="middle" dominant-baseline="text-before-edge" transform="translate(0,-5.599999904632568)"><tspan x="0" y="0" dy="0" style="font-family: Arial, sans-serif; font-size: 10px; fill: black; font-weight: bold;">São Paulo</tspan></text></g><g transform="translate(907.6581574888297,440.5801109895815)"><text text-anchor="middle" dominant-baseline="text-before-edge" transform="translate(0,-5.599999904632568)"><tspan x="0" y="0" dy="0" style="font-family: Arial, sans-serif; font-size: 10px; fill: black; font-weight: bold;">Rio de Janeiro</tspan></text></g><g transform="translate(861.6282952322681,513.1705805223071)"><text text-anchor="middle" dominant-baseline="text-before-edge" transform="translate(0,-5.599999904632568)"><tspan x="0" y="0" dy="0" style="font-family: Arial, sans-serif; font-size: 10px; fill: black; font-weight: bold;">Salvador</tspan></text></g><g transform="translate(861.6228697073517,368.035940125982)"><text text-anchor="middle" dominant-baseline="text-before-edge" transform="translate(0,-5.599999904632568)"><tspan x="0" y="0" dy="0" style="font-family: Arial, sans-serif; font-size: 10px; fill: black; font-weight: bold;">Brasília</tspan></text></g><g transform="translate(800.5625065085687,339.4083297727231)"><text text-anchor="middle" dominant-baseline="text-before-edge" transform="translate(0,-5.599999904632568)"><tspan x="0" y="0" dy="0" style="font-family: Arial, sans-serif; font-size: 10px; fill: black; font-weight: bold;">Fortaleza</tspan></text></g><g transform="translate(1023.9641099550406,426.16396576661094)"><text text-anchor="middle" dominant-baseline="text-before-edge" transform="translate(0,-5.599999904632568)"><tspan x="0" y="0" dy="0" style="font-family: Arial, sans-serif; font-size: 10px; fill: black; font-weight: bold;">Lima</tspan></text></g><g transform="translate(982.4746058104517,538.7842345038316)"><text text-anchor="middle" dominant-baseline="text-before-edge" transform="translate(0,-5.599999904632568)"><tspan x="0" y="0" dy="0" style="font-family: Arial, sans-serif; font-size: 10px; fill: black; font-weight: bold;">Bogotá</tspan></text></g><g transform="translate(979.3286002066358,324.55034003244066)"><text text-anchor="middle" dominant-baseline="text-before-edge" transform="translate(0,-5.599999904632568)"><tspan x="0" y="0" dy="0" style="font-family: Arial, sans-serif; font-size: 10px; fill: black; font-weight: bold;">Santiago</tspan></text></g><g transform="translate(906.1036001161326,275.9344693203234)"><text text-anchor="middle" dominant-baseline="text-before-edge" transform="translate(0,-5.599999904632568)"><tspan x="0" y="0" dy="0" style="font-family: Arial, sans-serif; font-size: 10px; fill: black; font-weight: bold;">Caracas</tspan></text></g><g transform="translate(895.9230163379317,579.4329608182982)"><text text-anchor="middle" dominant-baseline="text-before-edge" transform="translate(0,-5.599999904632568)"><tspan x="0" y="0" dy="0" style="font-family: Arial, sans-serif; font-size: 10px; fill: black; font-weight: bold;">Buenos Aires</tspan></text></g><g transform="translate(428.81504526479483,237.61934081269322)"><text text-anchor="middle" dominant-baseline="text-before-edge" transform="translate(0,-5.599999904632568)"><tspan x="0" y="0" dy="0" style="font-family: Arial, sans-serif; font-size: 10px; fill: black; font-weight: bold;">New York City</tspan></text></g><g transform="translate(527.8707257831032,237.61934081269322)"><text text-anchor="middle" dominant-baseline="text-before-edge" transform="translate(0,-5.599999904632568)"><tspan x="0" y="0" dy="0" style="font-family: Arial, sans-serif; font-size: 10px; fill: black; font-weight: bold;">Los Angeles</tspan></text></g><g transform="translate(493.77268816361726,303.1457873077753)"><text text-anchor="middle" dominant-baseline="text-before-edge" transform="translate(0,-5.599999904632568)"><tspan x="0" y="0" dy="0" style="font-family: Arial, sans-serif; font-size: 10px; fill: black; font-weight: bold;">Chicago</tspan></text></g><g transform="translate(493.2805587703919,175.36565389014618)"><text text-anchor="middle" dominant-baseline="text-before-edge" transform="translate(0,-5.599999904632568)"><tspan x="0" y="0" dy="0" style="font-family: Arial, sans-serif; font-size: 10px; fill: black; font-weight: bold;">Houston</tspan></text></g><g transform="translate(440.86540054375865,154.0701583751575)"><text text-anchor="middle" dominant-baseline="text-before-edge" transform="translate(0,-5.599999904632568)"><tspan x="0" y="0" dy="0" style="font-family: Arial, sans-serif; font-size: 10px; fill: black; font-weight: bold;">Philadelphia</tspan></text></g><g transform="translate(641.0839613499777,232.30849960837338)"><text text-anchor="middle" dominant-baseline="text-before-edge" transform="translate(0,-5.599999904632568)"><tspan x="0" y="0" dy="0" style="font-family: Arial, sans-serif; font-size: 10px; fill: black; font-weight: bold;">Mexico City</tspan></text></g><g transform="translate(727.5839791894603,232.30849960837338)"><text text-anchor="middle" dominant-baseline="text-before-edge" transform="translate(0,-5.599999904632568)"><tspan x="0" y="0" dy="0" style="font-family: Arial, sans-serif; font-size: 10px; fill: black; font-weight: bold;">Ecatepec de Morelos</tspan></text></g><g transform="translate(559.1711173583451,360.19523896862006)"><text text-anchor="middle" dominant-baseline="text-before-edge" transform="translate(0,-5.599999904632568)"><tspan x="0" y="0" dy="0" style="font-family: Arial, sans-serif; font-size: 10px; fill: black; font-weight: bold;">Toronto</tspan></text></g><g transform="translate(620.448806104219,360.19523896862006)"><text text-anchor="middle" dominant-baseline="text-before-edge" transform="translate(0,-5.599999904632568)"><tspan x="0" y="0" dy="0" style="font-family: Arial, sans-serif; font-size: 10px; fill: black; font-weight: bold;">Montreal</tspan></text></g><g transform="translate(582.7572890099393,147.48610790003454)"><text text-anchor="middle" dominant-baseline="text-before-edge" transform="translate(0,-5.599999904632568)"><tspan x="0" y="0" dy="0" style="font-family: Arial, sans-serif; font-size: 10px; fill: black; font-weight: bold;">Havana</tspan></text></g></g></g><g id="legend" transform="translate(1500,20)"><g transform="translate(5,0)"><g class="legendSize" transform="translate(0,0)"><g class="legendCells" transform="translate(50,16)"><g class="cell" transform="translate(0, 25)"><circle class="swatch" r="25" fill="none" stroke="#ccc"/><text class="label" transform="translate( 55,&#10;          5)" font-family="&quot;Arial&quot;, sans-serif" font-size="10px"><tspan x="0" dy="0em">1600657.7</tspan></text></g><g class="cell" transform="translate(0, 125)"><circle class="swatch" r="50" fill="none" stroke="#ccc"/><text class="label" transform="translate( 55,&#10;          5)" font-family="&quot;Arial&quot;, sans-serif" font-size="10px"><tspan x="0" dy="0em">6402630.8</tspan></text></g></g><text class="legendTitle" font-family="&quot;Arial&quot;, sans-serif" font-size="12px" font-weight="bold"><tspan x="0" dy="0em">Population [sum]</tspan></text></g><g class="legendColor" transform="translate(0,223.8000030517578)"><g class="legendCells" transform="translate(0,16)"><g class="cell" transform="translate(0, 0)"><rect class="swatch" height="15" width="15" style="fill: rgb(31, 119, 180);"/><text class="label" transform="translate( 20, 12.5)" font-family="&quot;Arial&quot;, sans-serif" font-size="10px"><tspan x="0" dy="0em">Africa</tspan></text></g><g class="cell" transform="translate(0, 21)"><rect class="swatch" height="15" width="15" style="fill: rgb(255, 127, 14);"/><text class="label" transform="translate( 20, 12.5)" font-family="&quot;Arial&quot;, sans-serif" font-size="10px"><tspan x="0" dy="0em">Asia</tspan></text></g><g class="cell" transform="translate(0, 42)"><rect class="swatch" height="15" width="15" style="fill: rgb(44, 160, 44);"/><text class="label" transform="translate( 20, 12.5)" font-family="&quot;Arial&quot;, sans-serif" font-size="10px"><tspan x="0" dy="0em">Europe</tspan></text></g><g class="cell" transform="translate(0, 63)"><rect class="swatch" height="15" width="15" style="fill: rgb(214, 39, 40);"/><text class="label" transform="translate( 20, 12.5)" font-family="&quot;Arial&quot;, sans-serif" font-size="10px"><tspan x="0" dy="0em">North America</tspan></text></g><g class="cell" transform="translate(0, 84)"><rect class="swatch" height="15" width="15" style="fill: rgb(148, 103, 189);"/><text class="label" transform="translate( 20, 12.5)" font-family="&quot;Arial&quot;, sans-serif" font-size="10px"><tspan x="0" dy="0em">South America</tspan></text></g></g><text class="legendTitle" font-family="&quot;Arial&quot;, sans-serif" font-size="12px" font-weight="bold"><tspan x="0" dy="0em">Continent [csvDistinct]</tspan></text></g></g></g></svg>